{"accessors":[{"bufferView":0,"componentType":5123,"count":6048,"max":[1310],"min":[0],"type":"SCALAR"},{"bufferView":1,"componentType":5126,"count":1311,"max":[0.05870499834418297,0.058097001165151596,0.022972000762820244],"min":[-0.05870499834418297,0.04835899919271469,-0.023504000157117844],"type":"VEC3"},{"bufferView":2,"componentType":5126,"count":1311,"max":[0.995190441608429,1.0,0.9999998807907104],"min":[-0.995190441608429,-1.0,-0.9999998807907104],"type":"VEC3"},{"bufferView":3,"componentType":5126,"count":1311,"max":[0.9344879984855652,0.9960939884185791],"min":[0.07709799706935883,0.021528005599975586],"type":"VEC2"},{"bufferView":4,"componentType":5123,"count":1140,"max":[321],"min":[0],"type":"SCALAR"},{"bufferView":5,"componentType":5126,"count":322,"max":[-0.05517200008034706,0.04879700019955635,0.02457999996840954],"min":[-0.059216998517513275,-0.06850600242614746,-0.0026420000940561295],"type":"VEC3"},{"bufferView":6,"componentType":5126,"count":322,"max":[1.0,0.878085196018219,0.9999865293502808],"min":[-1.0,-0.9273251891136169,-0.9999916553497314],"type":"VEC3"},{"bufferView":7,"componentType":5126,"count":322,"max":[0.9960939884185791,0.9960939884185791],"min":[0.0039059999398887157,0.0039060115814208984],"type":"VEC2"},{"bufferView":8,"componentType":5123,"count":1140,"max":[321],"min":[0],"type":"SCALAR"},{"bufferView":9,"componentType":5126,"count":322,"max":[0.059216998517513275,0.04879700019955635,0.02457999996840954],"min":[0.05517200008034706,-0.06850600242614746,-0.0026420000940561295],"type":"VEC3"},{"bufferView":10,"componentType":5126,"count":322,"max":[1.0,0.8780982494354248,0.9999861717224121],"min":[-1.0,-0.9274510145187378,-0.9999916553497314],"type":"VEC3"},{"bufferView":11,"componentType":5126,"count":322,"max":[0.9960939884185791,0.9960939884185791],"min":[0.0039059999398887157,0.0039060115814208984],"type":"VEC2"}],"asset":{"generator":"Verge3D for Blender v4.12.0","version":"2.0"},"bufferViews":[{"buffer":0,"byteLength":12096,"byteOffset":0,"target":34963},{"buffer":0,"byteLength":15732,"byteOffset":12096,"target":34962},{"buffer":0,"byteLength":15732,"byteOffset":27828,"target":34962},{"buffer":0,"byteLength":10488,"byteOffset":43560,"target":34962},{"buffer":0,"byteLength":2280,"byteOffset":54048,"target":34963},{"buffer":0,"byteLength":3864,"byteOffset":56328,"target":34962},{"buffer":0,"byteLength":3864,"byteOffset":60192,"target":34962},{"buffer":0,"byteLength":2576,"byteOffset":64056,"target":34962},{"buffer":0,"byteLength":2280,"byteOffset":66632,"target":34963},{"buffer":0,"byteLength":3864,"byteOffset":68912,"target":34962},{"buffer":0,"byteLength":3864,"byteOffset":72776,"target":34962},{"buffer":0,"byteLength":2576,"byteOffset":76640,"target":34962}],"buffers":[{"byteLength":79216,"uri":"my_awesome_app.bin"}],"cameras":[{"extensions":{"S8S_v3d_camera":{"controls":"ORBIT","enablePan":true,"moveSpeed":1.0,"orbitMaxDistance":99.0,"orbitMaxPolarAngle":3.1415927410125732,"orbitMaxZoom":100.0,"orbitMinDistance":0.0,"orbitMinPolarAngle":0.0,"orbitMinZoom":0.009999999776482582,"orbitTarget":[0.0,0.0,-0.0],"rotateSpeed":1.0,"viewportFitInitialAspect":1.7777777777777777,"viewportFitType":"AUTO"}},"name":"Camera","perspective":{"aspectRatio":1.7777777777777777,"yfov":0.5033799372418416,"zfar":100.0,"znear":0.10000000149011612},"type":"perspective"}],"extensionsUsed":["S8S_v3d_texture","S8S_v3d_materials","S8S_v3d_camera","S8S_v3d_mesh","S8S_v3d_node","S8S_v3d_scene"],"images":[{"uri":"environment.hdr"}],"materials":[{"alphaMode":"OPAQUE","extensions":{"S8S_v3d_materials":{"gtaoVisible":true,"materialIndex":0,"nodeGraph":{"edges":[{"fromNode":0,"fromOutput":0,"toInput":0,"toNode":1}],"nodes":[{"inputs":[[0.800000011920929,0.800000011920929,0.800000011920929,1.0],0.0,0.5,1.4500000476837158,1.0,[0.0,0.0,0.0],0.0,0.0,[1.0,0.20000000298023224,0.10000000149011612],0.05000000074505806,1.399999976158142,0.0,0.5,[1.0,1.0,1.0,1.0],0.0,0.0,[0.0,0.0,0.0],0.0,0.0,0.029999999329447746,1.5,[1.0,1.0,1.0,1.0],[0.0,0.0,0.0],0.0,0.5,[1.0,1.0,1.0,1.0],[0.0,0.0,0.0,1.0],1.0,0.0,1.3300000429153442],"is_active_output":false,"name":"原理化 BSDF","outputs":[[0,0,0,0]],"type":"BSDF_PRINCIPLED_BL"},{"inputs":[[0,0,0,0],[0,0,0,0],[0.0,0.0,0.0],0.0],"is_active_output":true,"name":"材质输出","outputs":[],"type":"OUTPUT_MATERIAL_BL"}]}}},"name":"M_Glasses"},{"alphaMode":"OPAQUE","extensions":{"S8S_v3d_materials":{"gtaoVisible":true,"materialIndex":0,"nodeGraph":{"edges":[{"fromNode":0,"fromOutput":0,"toInput":0,"toNode":1},{"fromNode":4,"fromOutput":0,"toInput":6,"toNode":2},{"fromNode":3,"fromOutput":0,"toInput":0,"toNode":2},{"fromNode":2,"fromOutput":2,"toInput":0,"toNode":0}],"nodes":[{"inputs":[[0.05087608844041824,0.05087608844041824,0.05087608844041824,1.0],1.0],"is_active_output":false,"name":"Background","outputs":[[0,0,0,0]],"type":"BACKGROUND_BL"},{"inputs":[[0,0,0,0],[0,0,0,0]],"is_active_output":true,"name":"World Output","outputs":[],"type":"OUTPUT_WORLD_BL"},{"blendType":"MIX","clampFactor":true,"clampResult":false,"dataType":"RGBA","factorMode":"UNIFORM","inputs":[0.5,[0.5,0.5,0.5],0.0,0.0,[0.0,0.0,0.0],[0.0,0.0,0.0],[0.5,0.5,0.5,1.0],[0.05126946419477463,0.05126946419477463,0.05126946419477463,1.0],0,0],"is_active_output":false,"name":"Mix","outputs":[0.0,[0.0,0.0,0.0],[0.0,0.0,0.0,0.0],0],"type":"MIX_BL"},{"inputs":[],"is_active_output":false,"name":"Light Path","outputs":[0.0,0.0,0.0,0.0,0.0,0.0,0.0,0.0,0.0,0.0,0.0,0.0,0.0,0.0,0.0],"type":"LIGHT_PATH_BL"},{"inputs":[[0.0,0.0,0.0]],"is_active_output":false,"name":"Environment Texture","outputs":[[0.0,0.0,0.0,0.0]],"projection":"EQUIRECTANGULAR","texture":0,"type":"TEX_ENVIRONMENT_BL"}]}}},"name":"Verge3D_Environment_World"}],"meshes":[{"extensions":{"S8S_v3d_mesh":{"colorLayers":{},"uvLayers":{"UVMap":"TEXCOORD_0"}}},"name":"Glasses","primitives":[{"attributes":{"NORMAL":2,"POSITION":1,"TEXCOORD_0":3},"indices":0,"material":0,"mode":4}]},{"extensions":{"S8S_v3d_mesh":{"colorLayers":{},"uvLayers":{"UVMap":"TEXCOORD_0"}}},"name":"Glasses_1","primitives":[{"attributes":{"NORMAL":6,"POSITION":5,"TEXCOORD_0":7},"indices":4,"material":0,"mode":4}]},{"extensions":{"S8S_v3d_mesh":{"colorLayers":{},"uvLayers":{"UVMap":"TEXCOORD_0"}}},"name":"Glasses_2","primitives":[{"attributes":{"NORMAL":10,"POSITION":9,"TEXCOORD_0":11},"indices":8,"material":0,"mode":4}]}],"nodes":[{"extensions":{"S8S_v3d_node":{"frustumCulling":true,"groupNames":[],"renderOrder":0,"useCastShadows":true,"useShadows":true}},"mesh":0,"name":"Glasses","rotation":[0.7071067690849304,0.0,-0.0,0.7071067690849304],"scale":[23.943378448486328,23.943378448486328,23.943378448486328]},{"camera":0,"extensions":{"S8S_v3d_node":{"frustumCulling":true,"groupNames":["Collection 1"],"renderOrder":0}},"name":"Camera","rotation":[-0.20997299253940582,0.3857799470424652,0.09062844514846802,0.8937962055206299],"scale":[1.0,0.9999998807907104,0.9999998807907104],"translation":[7.226052284240723,5.1113457679748535,6.946681022644043]},{"extensions":{"S8S_v3d_node":{"frustumCulling":true,"groupNames":[],"renderOrder":0,"useCastShadows":true,"useShadows":true}},"mesh":2,"name":"Glasses_2","rotation":[0.7071067690849304,0.0,-0.0,0.7071067690849304],"scale":[23.943378448486328,23.943378448486328,23.943378448486328]},{"extensions":{"S8S_v3d_node":{"frustumCulling":true,"groupNames":[],"renderOrder":0,"useCastShadows":true,"useShadows":true}},"mesh":1,"name":"Glasses_1","rotation":[0.7071067690849304,0.0,-0.0,0.7071067690849304],"scale":[23.943378448486328,23.943378448486328,23.943378448486328]}],"samplers":[{}],"scene":0,"scenes":[{"extensions":{"S8S_v3d_scene":{"aaMethod":"AUTO","iblEnvironmentMode":"PMREM","physicallyCorrectLights":true,"pmremMaxTileSize":256,"shadowMap":{"esmDistanceScale":1.0,"renderReverseSided":false,"renderSingleSided":true,"type":"PCFPOISSON"},"worldMaterial":1}},"extras":{"animFrameRate":24,"coordSystem":"Z_UP_RIGHT"},"name":"Scene","nodes":[0,3,2,1]}],"textures":[{"extensions":{"S8S_v3d_texture":{"colorSpace":"linear rec.709","source":0}},"name":"environment.hdr","sampler":0}]}
